# xmcd
#
# Track frame offsets:
#	150
#	15405
#	31348
#	47883
#	60163
#	74315
#	89400
#	97013
#	101363
#	108038
#	114978
#	128468
#	142608
#	157378
#	170495
#	184413
#	200313
#
# Disc length: 2853 seconds
#
# Revision: 2
# Processed by: cddbd v1.5.2PL0 Copyright (c) Steve Scherf et al.
# Submitted via: EZCDAudioConverter 3.1.5.1
#
DISCID=d60b2311
DTITLE=Varius - Το Μινόρε της Αυγής [CD2)
DYEAR=1984
DGENRE=Ρεμπέτικα
TTITLE0=ΧΑΡΙΣ ΑΛΕΞΙΟΥ -  ΑΜΑΝ ΚΑΤΕΡΙΝΑ ΜΟΥ
TTITLE1=ΑΘΗΝΑΙΚΗ ΚΟΜΠΑΝΙΑ - ΚΑΝΕ ΛΙΓΑΚΙ ΥΠΟΜΟΝΗ
TTITLE2=ΑΘΗΝΑΙΚΗ ΚΟΜΠΑΝΙΑ - ΓΚΙΟΥΛΜΠΑΧΑΡ
TTITLE3=ΑΘΗΝΑΙΚΗ ΚΟΜΠΑΝΙΑ - ΤΟ ΠΟΡΤΟΦΟΛΙ
TTITLE4=ΑΘΗΝΑΙΚΗ ΚΟΜΠΑΝΙΑ - ΣΕΡΑΧ
TTITLE5=ΓΙΩΡΓΟΣ ΞΗΝΤΑΡΗΣ - ΨΕΥΤΗ ΝΤΟΥΝΙΑ
TTITLE6=ΑΘΗΝΑΙΚΗ ΚΟΜΠΑΝΙΑ - ΠΕΦΤΟΥΝ ΤΗΣ ΒΡΟΧΗΣ ΟΙ ΣΤΑΛΕΣ
TTITLE7=ΑΘΗΝΑΙΚΗ ΚΟΜΠΑΝΙΑ - ΣΕ ΔΙΩΞΑΝ ΑΠ'ΤΗΝ ΚΟΚΚΙΝΙΑ
TTITLE8=ΑΘΗΝΑΙΚΗ ΚΟΜΠΑΝΙΑ - Η ΜΑΡΩ
TTITLE9=ΑΘΗΝΑΙΚΗ ΚΟΜΠΑΝΙΑ - ΤΣΑΡΚΑ ΣΤΗΝ ΕΛΛΑΔΑ 
TTITLE10=ΓΙΩΡΓΟΣ ΞΗΝΤΑΡΗΣ - ΤΟ ΡΕΤΣΙΝΑΤΟ ΤΟ ΚΡΑΣΙ
TTITLE11=ΑΘΗΝΑΙΚΗ ΚΟΜΠΑΝΙΑ - ΜΗΝ ΞΑΝΑΠΕΡΝΑΣ
TTITLE12=ΑΘΗΝΑΙΚΗ ΚΟΜΠΑΝΙΑ -  ΒΑΔΙΖΩ ΚΑΙ ΠΑΡΑΜΙΛΩ 
TTITLE13=ΑΘΗΝΑΙΚΗ ΚΟΜΠΑΝΙΑ - ΛΙΓΑ ΨΙΧΟΥΛΑ ΑΓΑΠΗΣ
TTITLE14=ΓΙΩΡΓΟΣ ΞΗΝΤΑΡΗΣ -  Η ΜΟΝΗ ΜΟΥ ΠΑΡΗΓΟΡΙΑ 
TTITLE15=ΑΘΗΝΑΙΚΗ ΚΟΜΠΑΝΙΑ -  ΤΑ ΛΕΡΩΜΕΝΑ Τ'ΑΠΛΥΤΑ
TTITLE16=ΑΘΗΝΑΙΚΗ ΚΟΜΠΑΝΙΑ - Ο ΤΙ ΚΙ ΑΝ ΠΩ ΔΕΝ ΣΕ ΞΕΧΝΩ
EXTD=
EXTT0=
EXTT1=
EXTT2=
EXTT3=
EXTT4=
EXTT5=
EXTT6=
EXTT7=
EXTT8=
EXTT9=
EXTT10=
EXTT11=
EXTT12=
EXTT13=
EXTT14=
EXTT15=
EXTT16=
PLAYORDER=
